<?xml version="1.0" encoding="UTF-8" standalone="no"?>
<svg xmlns="http://www.w3.org/2000/svg" xmlns:xlink="http://www.w3.org/1999/xlink" width="415" zoomAndPan="magnify" viewBox="0 0 312 113.249998" height="151" preserveAspectRatio="xMidYMid meet" version="1.0"><defs><g/><clipPath id="f17ecb7a53"><path d="M 74.21875 11.675781 L 83.90625 11.675781 L 83.90625 45.207031 L 74.21875 45.207031 Z M 74.21875 11.675781 " clip-rule="nonzero"/></clipPath><clipPath id="f88de4a48d"><path d="M 78.082031 13.046875 L 80.242188 13.046875 L 80.242188 38.296875 L 78.082031 38.296875 Z M 78.082031 13.046875 " clip-rule="nonzero"/></clipPath><clipPath id="b72e2f8e0b"><path d="M 79.164062 13.046875 C 79.449219 13.046875 79.722656 13.160156 79.925781 13.363281 C 80.128906 13.566406 80.242188 13.839844 80.242188 14.128906 L 80.242188 37.210938 C 80.242188 37.496094 80.128906 37.769531 79.925781 37.972656 C 79.722656 38.175781 79.449219 38.289062 79.164062 38.289062 C 78.878906 38.289062 78.601562 38.175781 78.398438 37.972656 C 78.199219 37.769531 78.082031 37.496094 78.082031 37.210938 L 78.082031 14.128906 C 78.082031 13.839844 78.199219 13.566406 78.398438 13.363281 C 78.601562 13.160156 78.878906 13.046875 79.164062 13.046875 Z M 79.164062 13.046875 " clip-rule="nonzero"/></clipPath><clipPath id="e756944b42"><path d="M 148.015625 55.328125 L 157.710938 55.328125 L 157.710938 65.019531 L 148.015625 65.019531 Z M 148.015625 55.328125 " clip-rule="nonzero"/></clipPath><clipPath id="9df0cd9ba8"><path d="M 152.863281 55.328125 C 150.1875 55.328125 148.015625 57.496094 148.015625 60.175781 C 148.015625 62.851562 150.1875 65.019531 152.863281 65.019531 C 155.539062 65.019531 157.710938 62.851562 157.710938 60.175781 C 157.710938 57.496094 155.539062 55.328125 152.863281 55.328125 Z M 152.863281 55.328125 " clip-rule="nonzero"/></clipPath><clipPath id="c95240a997"><path d="M 144.964844 59.714844 L 149.714844 59.714844 L 149.714844 60.632812 L 144.964844 60.632812 Z M 144.964844 59.714844 " clip-rule="nonzero"/></clipPath><clipPath id="742ae3a7aa"><path d="M 156.074219 59.714844 L 160.824219 59.714844 L 160.824219 60.632812 L 156.074219 60.632812 Z M 156.074219 59.714844 " clip-rule="nonzero"/></clipPath><clipPath id="62b194cce2"><path d="M 148 62 L 152 62 L 152 68 L 148 68 Z M 148 62 " clip-rule="nonzero"/></clipPath><clipPath id="e4b38ae149"><path d="M 148.378906 66.851562 L 150.714844 62.722656 L 151.515625 63.171875 L 149.175781 67.304688 Z M 148.378906 66.851562 " clip-rule="nonzero"/></clipPath><clipPath id="b35efc798c"><path d="M 154 62 L 158 62 L 158 68 L 154 68 Z M 154 62 " clip-rule="nonzero"/></clipPath><clipPath id="623b472366"><path d="M 154.917969 62.738281 L 157.296875 66.847656 L 156.5 67.304688 L 154.125 63.195312 Z M 154.917969 62.738281 " clip-rule="nonzero"/></clipPath><clipPath id="4d4d95a4f7"><path d="M 154 52 L 158 52 L 158 58 L 154 58 Z M 154 52 " clip-rule="nonzero"/></clipPath><clipPath id="6e0522ada9"><path d="M 154.125 57.125 L 156.464844 52.992188 L 157.261719 53.445312 L 154.921875 57.578125 Z M 154.125 57.125 " clip-rule="nonzero"/></clipPath><clipPath id="5af117364c"><path d="M 148 53 L 152 53 L 152 58 L 148 58 Z M 148 53 " clip-rule="nonzero"/></clipPath><clipPath id="3e82275fb4"><path d="M 149.136719 53.007812 L 151.515625 57.117188 L 150.71875 57.578125 L 148.34375 53.46875 Z M 149.136719 53.007812 " clip-rule="nonzero"/></clipPath><clipPath id="b64e419879"><path d="M 156 52 L 159 52 L 159 54 L 156 54 Z M 156 52 " clip-rule="nonzero"/></clipPath><clipPath id="f51ebfde69"><path d="M 156.460938 51.761719 L 158.421875 52.886719 L 157.65625 54.226562 L 155.691406 53.101562 Z M 156.460938 51.761719 " clip-rule="nonzero"/></clipPath><clipPath id="04e0f7d81b"><path d="M 157.441406 52.324219 C 156.898438 52.015625 156.289062 52.0625 156.078125 52.433594 C 155.863281 52.804688 156.132812 53.355469 156.675781 53.664062 C 157.214844 53.972656 157.828125 53.925781 158.039062 53.554688 C 158.25 53.1875 157.984375 52.632812 157.441406 52.324219 Z M 157.441406 52.324219 " clip-rule="nonzero"/></clipPath><clipPath id="1e03bf2dea"><path d="M 147 66 L 150 66 L 150 69 L 147 69 Z M 147 66 " clip-rule="nonzero"/></clipPath><clipPath id="a1f3706ace"><path d="M 147.964844 66.074219 L 149.929688 67.195312 L 149.164062 68.535156 L 147.199219 67.414062 Z M 147.964844 66.074219 " clip-rule="nonzero"/></clipPath><clipPath id="18ee0a2180"><path d="M 148.945312 66.636719 C 148.40625 66.324219 147.792969 66.375 147.582031 66.742188 C 147.371094 67.113281 147.636719 67.664062 148.179688 67.976562 C 148.722656 68.285156 149.332031 68.238281 149.546875 67.867188 C 149.757812 67.496094 149.488281 66.945312 148.945312 66.636719 Z M 148.945312 66.636719 " clip-rule="nonzero"/></clipPath><clipPath id="a24e4ed0ea"><path d="M 147 52 L 150 52 L 150 54 L 147 54 Z M 147 52 " clip-rule="nonzero"/></clipPath><clipPath id="f59fb5ae05"><path d="M 147.214844 52.921875 L 149.160156 51.765625 L 149.949219 53.09375 L 148.003906 54.25 Z M 147.214844 52.921875 " clip-rule="nonzero"/></clipPath><clipPath id="99575e5bdd"><path d="M 148.1875 52.34375 C 147.648438 52.664062 147.390625 53.21875 147.609375 53.585938 C 147.824219 53.953125 148.4375 53.992188 148.972656 53.671875 C 149.511719 53.351562 149.769531 52.796875 149.550781 52.429688 C 149.335938 52.066406 148.722656 52.027344 148.1875 52.34375 Z M 148.1875 52.34375 " clip-rule="nonzero"/></clipPath><clipPath id="30710217a6"><path d="M 155 66 L 159 66 L 159 69 L 155 69 Z M 155 66 " clip-rule="nonzero"/></clipPath><clipPath id="3a92dbf459"><path d="M 158.410156 67.441406 L 156.402344 68.484375 L 155.691406 67.113281 L 157.699219 66.070312 Z M 158.410156 67.441406 " clip-rule="nonzero"/></clipPath><clipPath id="095cefa576"><path d="M 157.40625 67.960938 C 157.960938 67.675781 158.25 67.136719 158.054688 66.757812 C 157.859375 66.378906 157.25 66.304688 156.695312 66.589844 C 156.140625 66.878906 155.851562 67.417969 156.046875 67.796875 C 156.242188 68.175781 156.851562 68.25 157.40625 67.960938 Z M 157.40625 67.960938 " clip-rule="nonzero"/></clipPath><clipPath id="a56cfbce71"><path d="M 160.460938 59.042969 L 162.003906 59.042969 L 162.003906 61.304688 L 160.460938 61.304688 Z M 160.460938 59.042969 " clip-rule="nonzero"/></clipPath><clipPath id="4f562505d8"><path d="M 162.003906 60.171875 C 162.003906 59.546875 161.65625 59.042969 161.230469 59.042969 C 160.804688 59.042969 160.460938 59.546875 160.460938 60.171875 C 160.460938 60.796875 160.804688 61.304688 161.230469 61.304688 C 161.65625 61.304688 162.003906 60.796875 162.003906 60.171875 Z M 162.003906 60.171875 " clip-rule="nonzero"/></clipPath><clipPath id="d0f5c52ab3"><path d="M 143.789062 59.042969 L 145.332031 59.042969 L 145.332031 61.304688 L 143.789062 61.304688 Z M 143.789062 59.042969 " clip-rule="nonzero"/></clipPath><clipPath id="3afe1670eb"><path d="M 145.332031 60.171875 C 145.332031 59.546875 144.988281 59.042969 144.558594 59.042969 C 144.132812 59.042969 143.789062 59.546875 143.789062 60.171875 C 143.789062 60.796875 144.132812 61.304688 144.558594 61.304688 C 144.988281 61.304688 145.332031 60.796875 145.332031 60.171875 Z M 145.332031 60.171875 " clip-rule="nonzero"/></clipPath></defs><g fill="#409e80" fill-opacity="1"><g transform="translate(13.142818, 43.185234)"><g><path d="M 17.109375 -31.453125 C 19.785156 -31.453125 22.128906 -30.867188 24.140625 -29.703125 C 26.148438 -28.535156 27.644531 -27.066406 28.625 -25.296875 L 28.625 -30.9375 L 33.828125 -30.9375 L 33.828125 0.671875 C 33.828125 3.492188 33.222656 6.003906 32.015625 8.203125 C 30.804688 10.410156 29.082031 12.132812 26.84375 13.375 C 24.601562 14.625 22 15.25 19.03125 15.25 C 14.96875 15.25 11.578125 14.285156 8.859375 12.359375 C 6.148438 10.441406 4.550781 7.828125 4.0625 4.515625 L 9.140625 4.515625 C 9.710938 6.398438 10.878906 7.914062 12.640625 9.0625 C 14.410156 10.207031 16.539062 10.78125 19.03125 10.78125 C 21.851562 10.78125 24.15625 9.894531 25.9375 8.125 C 27.726562 6.363281 28.625 3.878906 28.625 0.671875 L 28.625 -5.8125 C 27.613281 -4.007812 26.109375 -2.503906 24.109375 -1.296875 C 22.117188 -0.0859375 19.785156 0.515625 17.109375 0.515625 C 14.359375 0.515625 11.863281 -0.160156 9.625 -1.515625 C 7.382812 -2.878906 5.625 -4.785156 4.34375 -7.234375 C 3.0625 -9.679688 2.421875 -12.460938 2.421875 -15.578125 C 2.421875 -18.742188 3.0625 -21.519531 4.34375 -23.90625 C 5.625 -26.300781 7.382812 -28.15625 9.625 -29.46875 C 11.863281 -30.789062 14.359375 -31.453125 17.109375 -31.453125 Z M 28.625 -15.53125 C 28.625 -17.863281 28.15625 -19.894531 27.21875 -21.625 C 26.28125 -23.351562 25.007812 -24.675781 23.40625 -25.59375 C 21.800781 -26.519531 20.039062 -26.984375 18.125 -26.984375 C 16.207031 -26.984375 14.457031 -26.53125 12.875 -25.625 C 11.289062 -24.726562 10.03125 -23.414062 9.09375 -21.6875 C 8.15625 -19.957031 7.6875 -17.921875 7.6875 -15.578125 C 7.6875 -13.210938 8.15625 -11.15625 9.09375 -9.40625 C 10.03125 -7.65625 11.289062 -6.316406 12.875 -5.390625 C 14.457031 -4.472656 16.207031 -4.015625 18.125 -4.015625 C 20.039062 -4.015625 21.800781 -4.472656 23.40625 -5.390625 C 25.007812 -6.316406 26.28125 -7.65625 27.21875 -9.40625 C 28.15625 -11.15625 28.625 -13.195312 28.625 -15.53125 Z M 28.625 -15.53125 "/></g></g></g><g fill="#409e80" fill-opacity="1"><g transform="translate(51.310556, 43.185234)"><g><path d="M 9.484375 -25.921875 C 10.390625 -27.691406 11.679688 -29.066406 13.359375 -30.046875 C 15.035156 -31.023438 17.078125 -31.515625 19.484375 -31.515625 L 19.484375 -26.203125 L 18.125 -26.203125 C 12.363281 -26.203125 9.484375 -23.078125 9.484375 -16.828125 L 9.484375 0 L 4.34375 0 L 4.34375 -30.9375 L 9.484375 -30.9375 Z M 9.484375 -25.921875 "/></g></g></g><g fill="#409e80" fill-opacity="1"><g transform="translate(72.370559, 43.185234)"><g/></g></g><g fill="#409e80" fill-opacity="1"><g transform="translate(87.445682, 43.185234)"><g><path d="M 9.484375 -25.234375 C 10.503906 -27.003906 12.019531 -28.484375 14.03125 -29.671875 C 16.039062 -30.859375 18.382812 -31.453125 21.0625 -31.453125 C 23.8125 -31.453125 26.304688 -30.789062 28.546875 -29.46875 C 30.785156 -28.15625 32.546875 -26.300781 33.828125 -23.90625 C 35.109375 -21.519531 35.75 -18.742188 35.75 -15.578125 C 35.75 -12.460938 35.109375 -9.679688 33.828125 -7.234375 C 32.546875 -4.785156 30.785156 -2.878906 28.546875 -1.515625 C 26.304688 -0.160156 23.8125 0.515625 21.0625 0.515625 C 18.425781 0.515625 16.097656 -0.078125 14.078125 -1.265625 C 12.066406 -2.453125 10.535156 -3.929688 9.484375 -5.703125 L 9.484375 14.6875 L 4.34375 14.6875 L 4.34375 -30.9375 L 9.484375 -30.9375 Z M 30.5 -15.578125 C 30.5 -17.921875 30.023438 -19.957031 29.078125 -21.6875 C 28.140625 -23.414062 26.867188 -24.726562 25.265625 -25.625 C 23.671875 -26.53125 21.910156 -26.984375 19.984375 -26.984375 C 18.109375 -26.984375 16.367188 -26.519531 14.765625 -25.59375 C 13.160156 -24.675781 11.878906 -23.34375 10.921875 -21.59375 C 9.960938 -19.84375 9.484375 -17.820312 9.484375 -15.53125 C 9.484375 -13.195312 9.960938 -11.15625 10.921875 -9.40625 C 11.878906 -7.65625 13.160156 -6.316406 14.765625 -5.390625 C 16.367188 -4.472656 18.109375 -4.015625 19.984375 -4.015625 C 21.910156 -4.015625 23.671875 -4.472656 25.265625 -5.390625 C 26.867188 -6.316406 28.140625 -7.65625 29.078125 -9.40625 C 30.023438 -11.15625 30.5 -13.210938 30.5 -15.578125 Z M 30.5 -15.578125 "/></g></g></g><g fill="#409e80" fill-opacity="1"><g transform="translate(125.613421, 43.185234)"><g><path d="M 9.484375 -25.234375 C 10.503906 -27.003906 12.019531 -28.484375 14.03125 -29.671875 C 16.039062 -30.859375 18.382812 -31.453125 21.0625 -31.453125 C 23.8125 -31.453125 26.304688 -30.789062 28.546875 -29.46875 C 30.785156 -28.15625 32.546875 -26.300781 33.828125 -23.90625 C 35.109375 -21.519531 35.75 -18.742188 35.75 -15.578125 C 35.75 -12.460938 35.109375 -9.679688 33.828125 -7.234375 C 32.546875 -4.785156 30.785156 -2.878906 28.546875 -1.515625 C 26.304688 -0.160156 23.8125 0.515625 21.0625 0.515625 C 18.425781 0.515625 16.097656 -0.078125 14.078125 -1.265625 C 12.066406 -2.453125 10.535156 -3.929688 9.484375 -5.703125 L 9.484375 14.6875 L 4.34375 14.6875 L 4.34375 -30.9375 L 9.484375 -30.9375 Z M 30.5 -15.578125 C 30.5 -17.921875 30.023438 -19.957031 29.078125 -21.6875 C 28.140625 -23.414062 26.867188 -24.726562 25.265625 -25.625 C 23.671875 -26.53125 21.910156 -26.984375 19.984375 -26.984375 C 18.109375 -26.984375 16.367188 -26.519531 14.765625 -25.59375 C 13.160156 -24.675781 11.878906 -23.34375 10.921875 -21.59375 C 9.960938 -19.84375 9.484375 -17.820312 9.484375 -15.53125 C 9.484375 -13.195312 9.960938 -11.15625 10.921875 -9.40625 C 11.878906 -7.65625 13.160156 -6.316406 14.765625 -5.390625 C 16.367188 -4.472656 18.109375 -4.015625 19.984375 -4.015625 C 21.910156 -4.015625 23.671875 -4.472656 25.265625 -5.390625 C 26.867188 -6.316406 28.140625 -7.65625 29.078125 -9.40625 C 30.023438 -11.15625 30.5 -13.210938 30.5 -15.578125 Z M 30.5 -15.578125 "/></g></g></g><g fill="#409e80" fill-opacity="1"><g transform="translate(163.78116, 43.185234)"><g><path d="M 32.578125 -16.65625 C 32.578125 -15.675781 32.519531 -14.640625 32.40625 -13.546875 L 7.6875 -13.546875 C 7.875 -10.503906 8.914062 -8.125 10.8125 -6.40625 C 12.71875 -4.695312 15.023438 -3.84375 17.734375 -3.84375 C 19.953125 -3.84375 21.804688 -4.359375 23.296875 -5.390625 C 24.785156 -6.429688 25.828125 -7.816406 26.421875 -9.546875 L 31.96875 -9.546875 C 31.132812 -6.566406 29.472656 -4.144531 26.984375 -2.28125 C 24.503906 -0.414062 21.421875 0.515625 17.734375 0.515625 C 14.796875 0.515625 12.164062 -0.140625 9.84375 -1.453125 C 7.53125 -2.773438 5.710938 -4.648438 4.390625 -7.078125 C 3.078125 -9.515625 2.421875 -12.332031 2.421875 -15.53125 C 2.421875 -18.726562 3.0625 -21.53125 4.34375 -23.9375 C 5.625 -26.351562 7.421875 -28.207031 9.734375 -29.5 C 12.054688 -30.800781 14.722656 -31.453125 17.734375 -31.453125 C 20.671875 -31.453125 23.265625 -30.8125 25.515625 -29.53125 C 27.773438 -28.25 29.515625 -26.488281 30.734375 -24.25 C 31.960938 -22.007812 32.578125 -19.476562 32.578125 -16.65625 Z M 27.28125 -17.734375 C 27.28125 -19.691406 26.84375 -21.375 25.96875 -22.78125 C 25.101562 -24.195312 23.925781 -25.269531 22.4375 -26 C 20.957031 -26.738281 19.3125 -27.109375 17.5 -27.109375 C 14.90625 -27.109375 12.691406 -26.28125 10.859375 -24.625 C 9.035156 -22.96875 7.992188 -20.671875 7.734375 -17.734375 Z M 27.28125 -17.734375 "/></g></g></g><g fill="#e56b00" fill-opacity="1"><g transform="translate(44.019347, 100.284093)"><g><path d="M 2.421875 -15.53125 C 2.421875 -18.726562 3.0625 -21.519531 4.34375 -23.90625 C 5.625 -26.300781 7.398438 -28.15625 9.671875 -29.46875 C 11.953125 -30.789062 14.5625 -31.453125 17.5 -31.453125 C 21.300781 -31.453125 24.4375 -30.53125 26.90625 -28.6875 C 29.375 -26.84375 31.003906 -24.28125 31.796875 -21 L 26.265625 -21 C 25.734375 -22.882812 24.703125 -24.375 23.171875 -25.46875 C 21.648438 -26.5625 19.757812 -27.109375 17.5 -27.109375 C 14.5625 -27.109375 12.191406 -26.097656 10.390625 -24.078125 C 8.585938 -22.066406 7.6875 -19.21875 7.6875 -15.53125 C 7.6875 -11.800781 8.585938 -8.921875 10.390625 -6.890625 C 12.191406 -4.859375 14.5625 -3.84375 17.5 -3.84375 C 19.757812 -3.84375 21.640625 -4.367188 23.140625 -5.421875 C 24.648438 -6.472656 25.691406 -7.976562 26.265625 -9.9375 L 31.796875 -9.9375 C 30.960938 -6.769531 29.300781 -4.234375 26.8125 -2.328125 C 24.332031 -0.429688 21.226562 0.515625 17.5 0.515625 C 14.5625 0.515625 11.953125 -0.140625 9.671875 -1.453125 C 7.398438 -2.773438 5.625 -4.640625 4.34375 -7.046875 C 3.0625 -9.460938 2.421875 -12.289062 2.421875 -15.53125 Z M 2.421875 -15.53125 "/></g></g></g><g fill="#e56b00" fill-opacity="1"><g transform="translate(78.291253, 100.284093)"><g><path d="M 17.84375 0.515625 C 14.945312 0.515625 12.320312 -0.140625 9.96875 -1.453125 C 7.613281 -2.773438 5.765625 -4.648438 4.421875 -7.078125 C 3.085938 -9.515625 2.421875 -12.332031 2.421875 -15.53125 C 2.421875 -18.6875 3.109375 -21.476562 4.484375 -23.90625 C 5.859375 -26.34375 7.734375 -28.207031 10.109375 -29.5 C 12.484375 -30.800781 15.132812 -31.453125 18.0625 -31.453125 C 21 -31.453125 23.65625 -30.800781 26.03125 -29.5 C 28.40625 -28.207031 30.28125 -26.351562 31.65625 -23.9375 C 33.03125 -21.53125 33.71875 -18.726562 33.71875 -15.53125 C 33.71875 -12.332031 33.007812 -9.515625 31.59375 -7.078125 C 30.1875 -4.648438 28.273438 -2.773438 25.859375 -1.453125 C 23.453125 -0.140625 20.78125 0.515625 17.84375 0.515625 Z M 17.84375 -4.015625 C 19.6875 -4.015625 21.414062 -4.445312 23.03125 -5.3125 C 24.65625 -6.175781 25.960938 -7.472656 26.953125 -9.203125 C 27.953125 -10.929688 28.453125 -13.039062 28.453125 -15.53125 C 28.453125 -18.007812 27.960938 -20.113281 26.984375 -21.84375 C 26.015625 -23.582031 24.738281 -24.875 23.15625 -25.71875 C 21.570312 -26.5625 19.859375 -26.984375 18.015625 -26.984375 C 16.128906 -26.984375 14.40625 -26.5625 12.84375 -25.71875 C 11.28125 -24.875 10.03125 -23.582031 9.09375 -21.84375 C 8.15625 -20.113281 7.6875 -18.007812 7.6875 -15.53125 C 7.6875 -13.007812 8.144531 -10.878906 9.0625 -9.140625 C 9.988281 -7.410156 11.222656 -6.125 12.765625 -5.28125 C 14.304688 -4.4375 16 -4.015625 17.84375 -4.015625 Z M 17.84375 -4.015625 "/></g></g></g><g fill="#e56b00" fill-opacity="1"><g transform="translate(114.426379, 100.284093)"><g><path d="M 15.875 -4.75 L 25.46875 -30.9375 L 30.9375 -30.9375 L 18.796875 0 L 12.8125 0 L 0.671875 -30.9375 L 6.21875 -30.9375 Z M 15.875 -4.75 "/></g></g></g><g fill="#e56b00" fill-opacity="1"><g transform="translate(146.101061, 100.284093)"><g><path d="M 7 -35.96875 C 6.019531 -35.96875 5.191406 -36.304688 4.515625 -36.984375 C 3.835938 -37.660156 3.5 -38.488281 3.5 -39.46875 C 3.5 -40.445312 3.835938 -41.273438 4.515625 -41.953125 C 5.191406 -42.628906 6.019531 -42.96875 7 -42.96875 C 7.9375 -42.96875 8.734375 -42.628906 9.390625 -41.953125 C 10.054688 -41.273438 10.390625 -40.445312 10.390625 -39.46875 C 10.390625 -38.488281 10.054688 -37.660156 9.390625 -36.984375 C 8.734375 -36.304688 7.9375 -35.96875 7 -35.96875 Z M 9.484375 -30.9375 L 9.484375 0 L 4.34375 0 L 4.34375 -30.9375 Z M 9.484375 -30.9375 "/></g></g></g><g fill="#e56b00" fill-opacity="1"><g transform="translate(159.990502, 100.284093)"><g><path d="M 2.421875 -15.578125 C 2.421875 -18.742188 3.0625 -21.519531 4.34375 -23.90625 C 5.625 -26.300781 7.382812 -28.15625 9.625 -29.46875 C 11.863281 -30.789062 14.378906 -31.453125 17.171875 -31.453125 C 19.578125 -31.453125 21.8125 -30.894531 23.875 -29.78125 C 25.945312 -28.675781 27.53125 -27.21875 28.625 -25.40625 L 28.625 -41.78125 L 33.828125 -41.78125 L 33.828125 0 L 28.625 0 L 28.625 -5.8125 C 27.613281 -3.96875 26.109375 -2.453125 24.109375 -1.265625 C 22.117188 -0.078125 19.785156 0.515625 17.109375 0.515625 C 14.359375 0.515625 11.863281 -0.160156 9.625 -1.515625 C 7.382812 -2.878906 5.625 -4.785156 4.34375 -7.234375 C 3.0625 -9.679688 2.421875 -12.460938 2.421875 -15.578125 Z M 28.625 -15.53125 C 28.625 -17.863281 28.15625 -19.894531 27.21875 -21.625 C 26.28125 -23.351562 25.007812 -24.675781 23.40625 -25.59375 C 21.800781 -26.519531 20.039062 -26.984375 18.125 -26.984375 C 16.207031 -26.984375 14.457031 -26.53125 12.875 -25.625 C 11.289062 -24.726562 10.03125 -23.414062 9.09375 -21.6875 C 8.15625 -19.957031 7.6875 -17.921875 7.6875 -15.578125 C 7.6875 -13.210938 8.15625 -11.15625 9.09375 -9.40625 C 10.03125 -7.65625 11.289062 -6.316406 12.875 -5.390625 C 14.457031 -4.472656 16.207031 -4.015625 18.125 -4.015625 C 20.039062 -4.015625 21.800781 -4.472656 23.40625 -5.390625 C 25.007812 -6.316406 26.28125 -7.65625 27.21875 -9.40625 C 28.15625 -11.15625 28.625 -13.195312 28.625 -15.53125 Z M 28.625 -15.53125 "/></g></g></g><g clip-path="url(#f17ecb7a53)"><path fill="#409e80" d="M 81.636719 35.867188 C 83.113281 36.722656 84.105469 38.320312 84.105469 40.144531 C 84.105469 42.871094 81.886719 45.085938 79.160156 45.085938 C 76.433594 45.085938 74.21875 42.871094 74.21875 40.144531 C 74.21875 38.320312 75.210938 36.722656 76.6875 35.867188 L 76.6875 14.144531 C 76.6875 12.789062 77.796875 11.679688 79.152344 11.679688 C 80.507812 11.679688 81.621094 12.789062 81.621094 14.144531 L 81.621094 18.65625 L 83.316406 18.65625 L 83.316406 19.289062 L 81.621094 19.289062 L 81.621094 23.28125 L 83.316406 23.28125 L 83.316406 23.917969 L 81.621094 23.917969 L 81.621094 27.910156 L 83.316406 27.910156 L 83.316406 28.542969 L 81.621094 28.542969 L 81.621094 32.535156 L 83.316406 32.535156 L 83.316406 33.167969 L 81.621094 33.167969 L 81.621094 35.894531 Z M 80.121094 36.785156 L 80.121094 26.585938 L 78.203125 26.585938 L 78.203125 36.785156 C 76.734375 37.199219 75.664062 38.546875 75.664062 40.144531 C 75.664062 42.078125 77.230469 43.644531 79.160156 43.644531 C 81.09375 43.644531 82.660156 42.078125 82.660156 40.144531 C 82.660156 38.546875 81.589844 37.199219 80.121094 36.785156 Z M 80.742188 36.378906 L 80.742188 14.144531 C 80.742188 13.277344 80.03125 12.5625 79.160156 12.5625 C 78.292969 12.5625 77.578125 13.277344 77.578125 14.144531 L 77.578125 36.378906 L 77.132812 36.640625 C 75.882812 37.363281 75.105469 38.699219 75.105469 40.152344 C 75.105469 42.394531 76.921875 44.203125 79.152344 44.203125 C 81.394531 44.203125 83.203125 42.386719 83.203125 40.152344 C 83.203125 38.699219 82.433594 37.371094 81.175781 36.640625 L 80.726562 36.378906 Z M 80.742188 36.378906 " fill-opacity="1" fill-rule="evenodd"/></g><g clip-path="url(#f88de4a48d)"><g clip-path="url(#b72e2f8e0b)"><path fill="#409e80" d="M 78.082031 13.046875 L 80.242188 13.046875 L 80.242188 38.289062 L 78.082031 38.289062 Z M 78.082031 13.046875 " fill-opacity="1" fill-rule="nonzero"/></g></g><g fill="#005265" fill-opacity="1"><g transform="translate(207.010482, 66.920559)"><g><path d="M 19.421875 -31.515625 C 23.191406 -31.515625 26.242188 -30.375 28.578125 -28.09375 C 30.910156 -25.8125 32.078125 -22.523438 32.078125 -18.234375 L 32.078125 0 L 26.984375 0 L 26.984375 -17.5 C 26.984375 -20.59375 26.210938 -22.957031 24.671875 -24.59375 C 23.128906 -26.226562 21.023438 -27.046875 18.359375 -27.046875 C 15.640625 -27.046875 13.476562 -26.195312 11.875 -24.5 C 10.28125 -22.8125 9.484375 -20.347656 9.484375 -17.109375 L 9.484375 0 L 4.34375 0 L 4.34375 -30.9375 L 9.484375 -30.9375 L 9.484375 -26.546875 C 10.503906 -28.117188 11.890625 -29.335938 13.640625 -30.203125 C 15.390625 -31.078125 17.316406 -31.515625 19.421875 -31.515625 Z M 19.421875 -31.515625 "/></g></g></g><g fill="#005265" fill-opacity="1"><g transform="translate(243.145608, 66.920559)"><g><path d="M 32.578125 -16.65625 C 32.578125 -15.675781 32.519531 -14.640625 32.40625 -13.546875 L 7.6875 -13.546875 C 7.875 -10.503906 8.914062 -8.125 10.8125 -6.40625 C 12.71875 -4.695312 15.023438 -3.84375 17.734375 -3.84375 C 19.953125 -3.84375 21.804688 -4.359375 23.296875 -5.390625 C 24.785156 -6.429688 25.828125 -7.816406 26.421875 -9.546875 L 31.96875 -9.546875 C 31.132812 -6.566406 29.472656 -4.144531 26.984375 -2.28125 C 24.503906 -0.414062 21.421875 0.515625 17.734375 0.515625 C 14.796875 0.515625 12.164062 -0.140625 9.84375 -1.453125 C 7.53125 -2.773438 5.710938 -4.648438 4.390625 -7.078125 C 3.078125 -9.515625 2.421875 -12.332031 2.421875 -15.53125 C 2.421875 -18.726562 3.0625 -21.53125 4.34375 -23.9375 C 5.625 -26.351562 7.421875 -28.207031 9.734375 -29.5 C 12.054688 -30.800781 14.722656 -31.453125 17.734375 -31.453125 C 20.671875 -31.453125 23.265625 -30.8125 25.515625 -29.53125 C 27.773438 -28.25 29.515625 -26.488281 30.734375 -24.25 C 31.960938 -22.007812 32.578125 -19.476562 32.578125 -16.65625 Z M 27.28125 -17.734375 C 27.28125 -19.691406 26.84375 -21.375 25.96875 -22.78125 C 25.101562 -24.195312 23.925781 -25.269531 22.4375 -26 C 20.957031 -26.738281 19.3125 -27.109375 17.5 -27.109375 C 14.90625 -27.109375 12.691406 -26.28125 10.859375 -24.625 C 9.035156 -22.96875 7.992188 -20.671875 7.734375 -17.734375 Z M 27.28125 -17.734375 "/></g></g></g><g fill="#005265" fill-opacity="1"><g transform="translate(278.151516, 66.920559)"><g><path d="M 10.609375 -26.703125 L 10.609375 -8.46875 C 10.609375 -6.96875 10.925781 -5.90625 11.5625 -5.28125 C 12.207031 -4.65625 13.320312 -4.34375 14.90625 -4.34375 L 18.6875 -4.34375 L 18.6875 0 L 14.0625 0 C 11.195312 0 9.050781 -0.65625 7.625 -1.96875 C 6.195312 -3.289062 5.484375 -5.457031 5.484375 -8.46875 L 5.484375 -26.703125 L 1.46875 -26.703125 L 1.46875 -30.9375 L 5.484375 -30.9375 L 5.484375 -38.734375 L 10.609375 -38.734375 L 10.609375 -30.9375 L 18.6875 -30.9375 L 18.6875 -26.703125 Z M 10.609375 -26.703125 "/></g></g></g><g clip-path="url(#e756944b42)"><g clip-path="url(#9df0cd9ba8)"><path fill="#e56b00" d="M 148.015625 55.328125 L 157.710938 55.328125 L 157.710938 65.019531 L 148.015625 65.019531 Z M 148.015625 55.328125 " fill-opacity="1" fill-rule="nonzero"/></g></g><g clip-path="url(#c95240a997)"><path fill="#e56b00" d="M 144.964844 59.714844 L 149.714844 59.714844 L 149.714844 60.632812 L 144.964844 60.632812 Z M 144.964844 59.714844 " fill-opacity="1" fill-rule="nonzero"/></g><g clip-path="url(#742ae3a7aa)"><path fill="#e56b00" d="M 156.074219 59.714844 L 160.824219 59.714844 L 160.824219 60.632812 L 156.074219 60.632812 Z M 156.074219 59.714844 " fill-opacity="1" fill-rule="nonzero"/></g><g clip-path="url(#62b194cce2)"><g clip-path="url(#e4b38ae149)"><path fill="#e56b00" d="M 148.378906 66.851562 L 150.714844 62.722656 L 151.515625 63.171875 L 149.175781 67.304688 Z M 148.378906 66.851562 " fill-opacity="1" fill-rule="nonzero"/></g></g><g clip-path="url(#b35efc798c)"><g clip-path="url(#623b472366)"><path fill="#e56b00" d="M 154.917969 62.738281 L 157.296875 66.847656 L 156.5 67.304688 L 154.125 63.195312 Z M 154.917969 62.738281 " fill-opacity="1" fill-rule="nonzero"/></g></g><g clip-path="url(#4d4d95a4f7)"><g clip-path="url(#6e0522ada9)"><path fill="#e56b00" d="M 154.125 57.125 L 156.464844 52.992188 L 157.261719 53.445312 L 154.921875 57.578125 Z M 154.125 57.125 " fill-opacity="1" fill-rule="nonzero"/></g></g><g clip-path="url(#5af117364c)"><g clip-path="url(#3e82275fb4)"><path fill="#e56b00" d="M 149.136719 53.007812 L 151.515625 57.121094 L 150.71875 57.578125 L 148.34375 53.46875 Z M 149.136719 53.007812 " fill-opacity="1" fill-rule="nonzero"/></g></g><g clip-path="url(#b64e419879)"><g clip-path="url(#f51ebfde69)"><g clip-path="url(#04e0f7d81b)"><path fill="#e56b00" d="M 156.460938 51.761719 L 158.421875 52.886719 L 157.65625 54.226562 L 155.691406 53.101562 Z M 156.460938 51.761719 " fill-opacity="1" fill-rule="nonzero"/></g></g></g><g clip-path="url(#1e03bf2dea)"><g clip-path="url(#a1f3706ace)"><g clip-path="url(#18ee0a2180)"><path fill="#e56b00" d="M 147.964844 66.074219 L 149.929688 67.195312 L 149.164062 68.535156 L 147.199219 67.414062 Z M 147.964844 66.074219 " fill-opacity="1" fill-rule="nonzero"/></g></g></g><g clip-path="url(#a24e4ed0ea)"><g clip-path="url(#f59fb5ae05)"><g clip-path="url(#99575e5bdd)"><path fill="#e56b00" d="M 147.214844 52.921875 L 149.160156 51.765625 L 149.949219 53.09375 L 148.003906 54.25 Z M 147.214844 52.921875 " fill-opacity="1" fill-rule="nonzero"/></g></g></g><g clip-path="url(#30710217a6)"><g clip-path="url(#3a92dbf459)"><g clip-path="url(#095cefa576)"><path fill="#e56b00" d="M 158.410156 67.441406 L 156.402344 68.484375 L 155.691406 67.113281 L 157.699219 66.070312 Z M 158.410156 67.441406 " fill-opacity="1" fill-rule="nonzero"/></g></g></g><g clip-path="url(#a56cfbce71)"><g clip-path="url(#4f562505d8)"><path fill="#e56b00" d="M 162.003906 59.042969 L 162.003906 61.304688 L 160.460938 61.304688 L 160.460938 59.042969 Z M 162.003906 59.042969 " fill-opacity="1" fill-rule="nonzero"/></g></g><g clip-path="url(#d0f5c52ab3)"><g clip-path="url(#3afe1670eb)"><path fill="#e56b00" d="M 145.332031 59.042969 L 145.332031 61.304688 L 143.789062 61.304688 L 143.789062 59.042969 Z M 145.332031 59.042969 " fill-opacity="1" fill-rule="nonzero"/></g></g></svg>