<?xml version="1.0" encoding="UTF-8" standalone="no"?>
<svg
   xmlns:dc="http://purl.org/dc/elements/1.1/"
   xmlns:cc="http://creativecommons.org/ns#"
   xmlns:rdf="http://www.w3.org/1999/02/22-rdf-syntax-ns#"
   xmlns:svg="http://www.w3.org/2000/svg"
   xmlns="http://www.w3.org/2000/svg"
   viewBox="0 0 1052.3625 744.09998"
   height="744.09998"
   width="1052.3625"
   xml:space="preserve"
   version="1.1"
   id="svg2"><metadata
     id="metadata8"><rdf:RDF><cc:Work
         rdf:about=""><dc:format>image/svg+xml</dc:format><dc:type
           rdf:resource="http://purl.org/dc/dcmitype/StillImage" /><dc:title></dc:title></cc:Work></rdf:RDF></metadata><defs
     id="defs6"><clipPath
       id="clipPath16"
       clipPathUnits="userSpaceOnUse"><path
         id="path18"
         d="m 0,595.28 841.89,0 L 841.89,0 0,0 0,595.28 Z" /></clipPath></defs><g
     transform="matrix(1.25,0,0,-1.25,0,744.1)"
     id="g10"><g
       transform="matrix(2.0548876,0,0,2.0548876,-449.44281,-320.26844)"
       id="g12"><g
         clip-path="url(#clipPath16)"
         id="g14"><g
           transform="translate(338.52,310.6602)"
           id="g20"><path
             id="path22"
             style="fill:#444141;fill-opacity:1;fill-rule:nonzero;stroke:none"
             d="m 0,0 c 0.368,0 0.667,-0.296 0.667,-0.662 0,-0.365 -0.299,-0.662 -0.667,-0.662 -0.368,0 -0.667,0.297 -0.667,0.662 C -0.667,-0.296 -0.368,0 0,0" /></g><g
           transform="translate(338.52,313.0967)"
           id="g24"><path
             id="path26"
             style="fill:#444141;fill-opacity:1;fill-rule:nonzero;stroke:none"
             d="m 0,0 c 0.368,0 0.667,-0.296 0.667,-0.662 0,-0.365 -0.299,-0.662 -0.667,-0.662 -0.368,0 -0.667,0.297 -0.667,0.662 C -0.667,-0.296 -0.368,0 0,0" /></g><g
           transform="translate(338.52,315.5332)"
           id="g28"><path
             id="path30"
             style="fill:#444141;fill-opacity:1;fill-rule:nonzero;stroke:none"
             d="m 0,0 c 0.368,0 0.667,-0.296 0.667,-0.662 0,-0.365 -0.299,-0.662 -0.667,-0.662 -0.368,0 -0.667,0.297 -0.667,0.662 C -0.667,-0.296 -0.368,0 0,0" /></g><g
           transform="translate(338.52,317.9697)"
           id="g32"><path
             id="path34"
             style="fill:#444141;fill-opacity:1;fill-rule:nonzero;stroke:none"
             d="m 0,0 c 0.368,0 0.667,-0.296 0.667,-0.662 0,-0.365 -0.299,-0.662 -0.667,-0.662 -0.368,0 -0.667,0.297 -0.667,0.662 C -0.667,-0.296 -0.368,0 0,0" /></g><g
           transform="translate(338.52,320.4062)"
           id="g36"><path
             id="path38"
             style="fill:#444141;fill-opacity:1;fill-rule:nonzero;stroke:none"
             d="m 0,0 c 0.368,0 0.667,-0.296 0.667,-0.662 0,-0.365 -0.299,-0.662 -0.667,-0.662 -0.368,0 -0.667,0.297 -0.667,0.662 C -0.667,-0.296 -0.368,0 0,0" /></g><g
           transform="translate(338.52,322.8428)"
           id="g40"><path
             id="path42"
             style="fill:#444141;fill-opacity:1;fill-rule:nonzero;stroke:none"
             d="m 0,0 c 0.368,0 0.667,-0.296 0.667,-0.662 0,-0.365 -0.299,-0.662 -0.667,-0.662 -0.368,0 -0.667,0.297 -0.667,0.662 C -0.667,-0.296 -0.368,0 0,0" /></g><g
           transform="translate(338.52,325.2793)"
           id="g44"><path
             id="path46"
             style="fill:#444141;fill-opacity:1;fill-rule:nonzero;stroke:none"
             d="m 0,0 c 0.368,0 0.667,-0.296 0.667,-0.662 0,-0.365 -0.299,-0.662 -0.667,-0.662 -0.368,0 -0.667,0.297 -0.667,0.662 C -0.667,-0.296 -0.368,0 0,0" /></g><g
           transform="translate(338.52,327.7158)"
           id="g48"><path
             id="path50"
             style="fill:#444141;fill-opacity:1;fill-rule:nonzero;stroke:none"
             d="m 0,0 c 0.368,0 0.667,-0.296 0.667,-0.662 0,-0.365 -0.299,-0.662 -0.667,-0.662 -0.368,0 -0.667,0.297 -0.667,0.662 C -0.667,-0.296 -0.368,0 0,0" /></g><g
           transform="translate(338.52,330.1519)"
           id="g52"><path
             id="path54"
             style="fill:#444141;fill-opacity:1;fill-rule:nonzero;stroke:none"
             d="m 0,0 c 0.368,0 0.667,-0.296 0.667,-0.662 0,-0.365 -0.299,-0.662 -0.667,-0.662 -0.368,0 -0.667,0.297 -0.667,0.662 C -0.667,-0.296 -0.368,0 0,0" /></g><g
           transform="translate(338.52,332.5884)"
           id="g56"><path
             id="path58"
             style="fill:#444141;fill-opacity:1;fill-rule:nonzero;stroke:none"
             d="m 0,0 c 0.368,0 0.667,-0.296 0.667,-0.662 0,-0.365 -0.299,-0.662 -0.667,-0.662 -0.368,0 -0.667,0.297 -0.667,0.662 C -0.667,-0.296 -0.368,0 0,0" /></g><g
           transform="translate(338.52,335.0249)"
           id="g60"><path
             id="path62"
             style="fill:#444141;fill-opacity:1;fill-rule:nonzero;stroke:none"
             d="m 0,0 c 0.368,0 0.667,-0.296 0.667,-0.662 0,-0.365 -0.299,-0.662 -0.667,-0.662 -0.368,0 -0.667,0.297 -0.667,0.662 C -0.667,-0.296 -0.368,0 0,0" /></g><g
           transform="translate(338.52,337.4614)"
           id="g64"><path
             id="path66"
             style="fill:#444141;fill-opacity:1;fill-rule:nonzero;stroke:none"
             d="m 0,0 c 0.368,0 0.667,-0.296 0.667,-0.662 0,-0.365 -0.299,-0.662 -0.667,-0.662 -0.368,0 -0.667,0.297 -0.667,0.662 C -0.667,-0.296 -0.368,0 0,0" /></g><g
           transform="translate(338.52,339.8979)"
           id="g68"><path
             id="path70"
             style="fill:#444141;fill-opacity:1;fill-rule:nonzero;stroke:none"
             d="m 0,0 c 0.368,0 0.667,-0.296 0.667,-0.662 0,-0.365 -0.299,-0.662 -0.667,-0.662 -0.368,0 -0.667,0.297 -0.667,0.662 C -0.667,-0.296 -0.368,0 0,0" /></g><g
           transform="translate(338.52,342.3345)"
           id="g72"><path
             id="path74"
             style="fill:#444141;fill-opacity:1;fill-rule:nonzero;stroke:none"
             d="m 0,0 c 0.368,0 0.667,-0.296 0.667,-0.662 0,-0.365 -0.299,-0.662 -0.667,-0.662 -0.368,0 -0.667,0.297 -0.667,0.662 C -0.667,-0.296 -0.368,0 0,0" /></g><g
           transform="translate(338.52,344.771)"
           id="g76"><path
             id="path78"
             style="fill:#444141;fill-opacity:1;fill-rule:nonzero;stroke:none"
             d="m 0,0 c 0.368,0 0.667,-0.296 0.667,-0.662 0,-0.365 -0.299,-0.662 -0.667,-0.662 -0.368,0 -0.667,0.297 -0.667,0.662 C -0.667,-0.296 -0.368,0 0,0" /></g><g
           transform="translate(338.52,347.207)"
           id="g80"><path
             id="path82"
             style="fill:#444141;fill-opacity:1;fill-rule:nonzero;stroke:none"
             d="m 0,0 c 0.368,0 0.667,-0.296 0.667,-0.662 0,-0.365 -0.299,-0.662 -0.667,-0.662 -0.368,0 -0.667,0.297 -0.667,0.662 C -0.667,-0.296 -0.368,0 0,0" /></g><g
           transform="translate(338.52,349.6436)"
           id="g84"><path
             id="path86"
             style="fill:#444141;fill-opacity:1;fill-rule:nonzero;stroke:none"
             d="m 0,0 c 0.368,0 0.667,-0.296 0.667,-0.662 0,-0.365 -0.299,-0.662 -0.667,-0.662 -0.368,0 -0.667,0.297 -0.667,0.662 C -0.667,-0.296 -0.368,0 0,0" /></g><g
           transform="translate(338.52,352.0801)"
           id="g88"><path
             id="path90"
             style="fill:#444141;fill-opacity:1;fill-rule:nonzero;stroke:none"
             d="m 0,0 c 0.368,0 0.667,-0.296 0.667,-0.662 0,-0.365 -0.299,-0.662 -0.667,-0.662 -0.368,0 -0.667,0.297 -0.667,0.662 C -0.667,-0.296 -0.368,0 0,0" /></g><g
           transform="translate(255.2974,361.9575)"
           id="g92"><path
             id="path94"
             style="fill:#33bdf2;fill-opacity:1;fill-rule:nonzero;stroke:none"
             d="m 0,0 c -3.971,4.891 -3.144,12.176 1.848,16.272 4.993,4.096 12.259,3.451 16.231,-1.44 C 22.05,9.941 21.223,2.656 16.23,-1.44 11.238,-5.535 3.971,-4.891 0,0" /></g><g
           transform="translate(338.52,237.2266)"
           id="g96"><path
             id="path98"
             style="fill:#444141;fill-opacity:1;fill-rule:nonzero;stroke:none"
             d="m 0,0 c 0.368,0 0.667,-0.296 0.667,-0.662 0,-0.365 -0.299,-0.662 -0.667,-0.662 -0.368,0 -0.667,0.297 -0.667,0.662 C -0.667,-0.296 -0.368,0 0,0" /></g><g
           transform="translate(338.52,239.6631)"
           id="g100"><path
             id="path102"
             style="fill:#444141;fill-opacity:1;fill-rule:nonzero;stroke:none"
             d="m 0,0 c 0.368,0 0.667,-0.296 0.667,-0.662 0,-0.365 -0.299,-0.662 -0.667,-0.662 -0.368,0 -0.667,0.297 -0.667,0.662 C -0.667,-0.296 -0.368,0 0,0" /></g><g
           transform="translate(338.52,242.0996)"
           id="g104"><path
             id="path106"
             style="fill:#444141;fill-opacity:1;fill-rule:nonzero;stroke:none"
             d="m 0,0 c 0.368,0 0.667,-0.296 0.667,-0.662 0,-0.365 -0.299,-0.662 -0.667,-0.662 -0.368,0 -0.667,0.297 -0.667,0.662 C -0.667,-0.296 -0.368,0 0,0" /></g><g
           transform="translate(338.52,244.5361)"
           id="g108"><path
             id="path110"
             style="fill:#444141;fill-opacity:1;fill-rule:nonzero;stroke:none"
             d="m 0,0 c 0.368,0 0.667,-0.296 0.667,-0.662 0,-0.365 -0.299,-0.662 -0.667,-0.662 -0.368,0 -0.667,0.297 -0.667,0.662 C -0.667,-0.296 -0.368,0 0,0" /></g><g
           transform="translate(338.52,246.9727)"
           id="g112"><path
             id="path114"
             style="fill:#444141;fill-opacity:1;fill-rule:nonzero;stroke:none"
             d="m 0,0 c 0.368,0 0.667,-0.296 0.667,-0.662 0,-0.365 -0.299,-0.662 -0.667,-0.662 -0.368,0 -0.667,0.297 -0.667,0.662 C -0.667,-0.296 -0.368,0 0,0" /></g><g
           transform="translate(338.52,249.4092)"
           id="g116"><path
             id="path118"
             style="fill:#444141;fill-opacity:1;fill-rule:nonzero;stroke:none"
             d="m 0,0 c 0.368,0 0.667,-0.296 0.667,-0.662 0,-0.365 -0.299,-0.662 -0.667,-0.662 -0.368,0 -0.667,0.297 -0.667,0.662 C -0.667,-0.296 -0.368,0 0,0" /></g><g
           transform="translate(338.52,251.8457)"
           id="g120"><path
             id="path122"
             style="fill:#444141;fill-opacity:1;fill-rule:nonzero;stroke:none"
             d="m 0,0 c 0.368,0 0.667,-0.297 0.667,-0.662 0,-0.365 -0.299,-0.662 -0.667,-0.662 -0.368,0 -0.667,0.297 -0.667,0.662 C -0.667,-0.297 -0.368,0 0,0" /></g><g
           transform="translate(338.52,254.2812)"
           id="g124"><path
             id="path126"
             style="fill:#444141;fill-opacity:1;fill-rule:nonzero;stroke:none"
             d="m 0,0 c 0.368,0 0.667,-0.296 0.667,-0.661 0,-0.365 -0.299,-0.662 -0.667,-0.662 -0.368,0 -0.667,0.297 -0.667,0.662 C -0.667,-0.296 -0.368,0 0,0" /></g><g
           transform="translate(338.52,256.7178)"
           id="g128"><path
             id="path130"
             style="fill:#444141;fill-opacity:1;fill-rule:nonzero;stroke:none"
             d="m 0,0 c 0.368,0 0.667,-0.296 0.667,-0.661 0,-0.365 -0.299,-0.662 -0.667,-0.662 -0.368,0 -0.667,0.297 -0.667,0.662 C -0.667,-0.296 -0.368,0 0,0" /></g><g
           transform="translate(338.52,259.1543)"
           id="g132"><path
             id="path134"
             style="fill:#444141;fill-opacity:1;fill-rule:nonzero;stroke:none"
             d="m 0,0 c 0.368,0 0.667,-0.296 0.667,-0.662 0,-0.364 -0.299,-0.661 -0.667,-0.661 -0.368,0 -0.667,0.297 -0.667,0.661 C -0.667,-0.296 -0.368,0 0,0" /></g><g
           transform="translate(338.52,261.5908)"
           id="g136"><path
             id="path138"
             style="fill:#444141;fill-opacity:1;fill-rule:nonzero;stroke:none"
             d="m 0,0 c 0.368,0 0.667,-0.296 0.667,-0.662 0,-0.364 -0.299,-0.661 -0.667,-0.661 -0.368,0 -0.667,0.297 -0.667,0.661 C -0.667,-0.296 -0.368,0 0,0" /></g><g
           transform="translate(338.52,264.0273)"
           id="g140"><path
             id="path142"
             style="fill:#444141;fill-opacity:1;fill-rule:nonzero;stroke:none"
             d="m 0,0 c 0.368,0 0.667,-0.296 0.667,-0.662 0,-0.364 -0.299,-0.662 -0.667,-0.662 -0.368,0 -0.667,0.298 -0.667,0.662 C -0.667,-0.296 -0.368,0 0,0" /></g><g
           transform="translate(338.52,266.4639)"
           id="g144"><path
             id="path146"
             style="fill:#444141;fill-opacity:1;fill-rule:nonzero;stroke:none"
             d="m 0,0 c 0.368,0 0.667,-0.296 0.667,-0.662 0,-0.364 -0.299,-0.662 -0.667,-0.662 -0.368,0 -0.667,0.298 -0.667,0.662 C -0.667,-0.296 -0.368,0 0,0" /></g><g
           transform="translate(338.52,268.9004)"
           id="g148"><path
             id="path150"
             style="fill:#444141;fill-opacity:1;fill-rule:nonzero;stroke:none"
             d="m 0,0 c 0.368,0 0.667,-0.296 0.667,-0.662 0,-0.365 -0.299,-0.662 -0.667,-0.662 -0.368,0 -0.667,0.297 -0.667,0.662 C -0.667,-0.296 -0.368,0 0,0" /></g><g
           transform="translate(338.52,271.3369)"
           id="g152"><path
             id="path154"
             style="fill:#444141;fill-opacity:1;fill-rule:nonzero;stroke:none"
             d="m 0,0 c 0.368,0 0.667,-0.296 0.667,-0.662 0,-0.365 -0.299,-0.662 -0.667,-0.662 -0.368,0 -0.667,0.297 -0.667,0.662 C -0.667,-0.296 -0.368,0 0,0" /></g><g
           transform="translate(338.52,273.7734)"
           id="g156"><path
             id="path158"
             style="fill:#444141;fill-opacity:1;fill-rule:nonzero;stroke:none"
             d="m 0,0 c 0.368,0 0.667,-0.296 0.667,-0.662 0,-0.365 -0.299,-0.662 -0.667,-0.662 -0.368,0 -0.667,0.297 -0.667,0.662 C -0.667,-0.296 -0.368,0 0,0" /></g><g
           transform="translate(338.52,276.21)"
           id="g160"><path
             id="path162"
             style="fill:#444141;fill-opacity:1;fill-rule:nonzero;stroke:none"
             d="m 0,0 c 0.368,0 0.667,-0.296 0.667,-0.662 0,-0.365 -0.299,-0.662 -0.667,-0.662 -0.368,0 -0.667,0.297 -0.667,0.662 C -0.667,-0.296 -0.368,0 0,0" /></g><g
           transform="translate(338.52,278.6465)"
           id="g164"><path
             id="path166"
             style="fill:#444141;fill-opacity:1;fill-rule:nonzero;stroke:none"
             d="m 0,0 c 0.368,0 0.667,-0.296 0.667,-0.662 0,-0.365 -0.299,-0.662 -0.667,-0.662 -0.368,0 -0.667,0.297 -0.667,0.662 C -0.667,-0.296 -0.368,0 0,0" /></g><g
           transform="translate(321.502,293.9678)"
           id="g168"><path
             id="path170"
             style="fill:#444141;fill-opacity:1;fill-rule:nonzero;stroke:none"
             d="M 0,0 C 0,0.368 0.296,0.667 0.662,0.667 1.027,0.667 1.324,0.368 1.324,0 1.324,-0.368 1.027,-0.667 0.662,-0.667 0.296,-0.667 0,-0.368 0,0" /></g><g
           transform="translate(319.0654,293.9678)"
           id="g172"><path
             id="path174"
             style="fill:#444141;fill-opacity:1;fill-rule:nonzero;stroke:none"
             d="M 0,0 C 0,0.368 0.296,0.667 0.662,0.667 1.027,0.667 1.324,0.368 1.324,0 1.324,-0.368 1.027,-0.667 0.662,-0.667 0.296,-0.667 0,-0.368 0,0" /></g><g
           transform="translate(316.6289,293.9678)"
           id="g176"><path
             id="path178"
             style="fill:#444141;fill-opacity:1;fill-rule:nonzero;stroke:none"
             d="M 0,0 C 0,0.368 0.296,0.667 0.662,0.667 1.027,0.667 1.324,0.368 1.324,0 1.324,-0.368 1.027,-0.667 0.662,-0.667 0.296,-0.667 0,-0.368 0,0" /></g><g
           transform="translate(314.1924,293.9678)"
           id="g180"><path
             id="path182"
             style="fill:#444141;fill-opacity:1;fill-rule:nonzero;stroke:none"
             d="M 0,0 C 0,0.368 0.296,0.667 0.662,0.667 1.027,0.667 1.324,0.368 1.324,0 1.324,-0.368 1.027,-0.667 0.662,-0.667 0.296,-0.667 0,-0.368 0,0" /></g><g
           transform="translate(311.7559,293.9678)"
           id="g184"><path
             id="path186"
             style="fill:#444141;fill-opacity:1;fill-rule:nonzero;stroke:none"
             d="M 0,0 C 0,0.368 0.296,0.667 0.662,0.667 1.027,0.667 1.324,0.368 1.324,0 1.324,-0.368 1.027,-0.667 0.662,-0.667 0.296,-0.667 0,-0.368 0,0" /></g><g
           transform="translate(309.3198,293.9678)"
           id="g188"><path
             id="path190"
             style="fill:#444141;fill-opacity:1;fill-rule:nonzero;stroke:none"
             d="M 0,0 C 0,0.368 0.296,0.667 0.662,0.667 1.027,0.667 1.324,0.368 1.324,0 1.324,-0.368 1.027,-0.667 0.662,-0.667 0.296,-0.667 0,-0.368 0,0" /></g><g
           transform="translate(306.8833,293.9678)"
           id="g192"><path
             id="path194"
             style="fill:#444141;fill-opacity:1;fill-rule:nonzero;stroke:none"
             d="M 0,0 C 0,0.368 0.296,0.667 0.662,0.667 1.027,0.667 1.324,0.368 1.324,0 1.324,-0.368 1.027,-0.667 0.662,-0.667 0.296,-0.667 0,-0.368 0,0" /></g><g
           transform="translate(304.4468,293.9678)"
           id="g196"><path
             id="path198"
             style="fill:#444141;fill-opacity:1;fill-rule:nonzero;stroke:none"
             d="M 0,0 C 0,0.368 0.296,0.667 0.662,0.667 1.027,0.667 1.324,0.368 1.324,0 1.324,-0.368 1.027,-0.667 0.662,-0.667 0.296,-0.667 0,-0.368 0,0" /></g><g
           transform="translate(302.0103,293.9678)"
           id="g200"><path
             id="path202"
             style="fill:#444141;fill-opacity:1;fill-rule:nonzero;stroke:none"
             d="M 0,0 C 0,0.368 0.296,0.667 0.662,0.667 1.027,0.667 1.324,0.368 1.324,0 1.324,-0.368 1.027,-0.667 0.662,-0.667 0.296,-0.667 0,-0.368 0,0" /></g><g
           transform="translate(299.5737,293.9678)"
           id="g204"><path
             id="path206"
             style="fill:#444141;fill-opacity:1;fill-rule:nonzero;stroke:none"
             d="M 0,0 C 0,0.368 0.296,0.667 0.662,0.667 1.027,0.667 1.324,0.368 1.324,0 1.324,-0.368 1.027,-0.667 0.662,-0.667 0.296,-0.667 0,-0.368 0,0" /></g><g
           transform="translate(297.1372,293.9678)"
           id="g208"><path
             id="path210"
             style="fill:#444141;fill-opacity:1;fill-rule:nonzero;stroke:none"
             d="M 0,0 C 0,0.368 0.296,0.667 0.662,0.667 1.027,0.667 1.324,0.368 1.324,0 1.324,-0.368 1.027,-0.667 0.662,-0.667 0.296,-0.667 0,-0.368 0,0" /></g><g
           transform="translate(294.7007,293.9678)"
           id="g212"><path
             id="path214"
             style="fill:#444141;fill-opacity:1;fill-rule:nonzero;stroke:none"
             d="M 0,0 C 0,0.368 0.296,0.667 0.662,0.667 1.027,0.667 1.324,0.368 1.324,0 1.324,-0.368 1.027,-0.667 0.662,-0.667 0.296,-0.667 0,-0.368 0,0" /></g><g
           transform="translate(292.2646,293.9678)"
           id="g216"><path
             id="path218"
             style="fill:#444141;fill-opacity:1;fill-rule:nonzero;stroke:none"
             d="M 0,0 C 0,0.368 0.296,0.667 0.662,0.667 1.027,0.667 1.324,0.368 1.324,0 1.324,-0.368 1.027,-0.667 0.662,-0.667 0.296,-0.667 0,-0.368 0,0" /></g><g
           transform="translate(289.8281,293.9678)"
           id="g220"><path
             id="path222"
             style="fill:#444141;fill-opacity:1;fill-rule:nonzero;stroke:none"
             d="M 0,0 C 0,0.368 0.296,0.667 0.662,0.667 1.027,0.667 1.324,0.368 1.324,0 1.324,-0.368 1.027,-0.667 0.662,-0.667 0.296,-0.667 0,-0.368 0,0" /></g><g
           transform="translate(287.3916,293.9678)"
           id="g224"><path
             id="path226"
             style="fill:#444141;fill-opacity:1;fill-rule:nonzero;stroke:none"
             d="M 0,0 C 0,0.368 0.296,0.667 0.662,0.667 1.027,0.667 1.324,0.368 1.324,0 1.324,-0.368 1.027,-0.667 0.662,-0.667 0.296,-0.667 0,-0.368 0,0" /></g><g
           transform="translate(284.9551,293.9678)"
           id="g228"><path
             id="path230"
             style="fill:#444141;fill-opacity:1;fill-rule:nonzero;stroke:none"
             d="M 0,0 C 0,0.368 0.296,0.667 0.662,0.667 1.027,0.667 1.324,0.368 1.324,0 1.324,-0.368 1.027,-0.667 0.662,-0.667 0.296,-0.667 0,-0.368 0,0" /></g><g
           transform="translate(322.396,289.6436)"
           id="g232"><path
             id="path234"
             style="fill:#444141;fill-opacity:1;fill-rule:nonzero;stroke:none"
             d="M 0,0 C -0.284,0.233 -0.327,0.652 -0.094,0.935 0.138,1.217 0.557,1.256 0.841,1.021 1.126,0.788 1.168,0.37 0.935,0.087 0.703,-0.195 0.284,-0.234 0,0" /></g><g
           transform="translate(320.8481,287.7617)"
           id="g236"><path
             id="path238"
             style="fill:#444141;fill-opacity:1;fill-rule:nonzero;stroke:none"
             d="M 0,0 C -0.284,0.234 -0.327,0.653 -0.094,0.936 0.138,1.217 0.557,1.256 0.841,1.022 1.126,0.788 1.168,0.37 0.935,0.087 0.703,-0.195 0.284,-0.233 0,0" /></g><g
           transform="translate(319.2998,285.8809)"
           id="g240"><path
             id="path242"
             style="fill:#444141;fill-opacity:1;fill-rule:nonzero;stroke:none"
             d="M 0,0 C -0.284,0.233 -0.327,0.652 -0.094,0.935 0.138,1.217 0.557,1.256 0.841,1.021 1.126,0.788 1.168,0.37 0.935,0.087 0.703,-0.195 0.284,-0.234 0,0" /></g><g
           transform="translate(317.7515,283.999)"
           id="g244"><path
             id="path246"
             style="fill:#444141;fill-opacity:1;fill-rule:nonzero;stroke:none"
             d="M 0,0 C -0.284,0.234 -0.327,0.653 -0.094,0.936 0.138,1.217 0.557,1.256 0.841,1.022 1.126,0.788 1.168,0.37 0.935,0.087 0.703,-0.194 0.284,-0.233 0,0" /></g><g
           transform="translate(316.2036,282.1182)"
           id="g248"><path
             id="path250"
             style="fill:#444141;fill-opacity:1;fill-rule:nonzero;stroke:none"
             d="M 0,0 C -0.284,0.233 -0.327,0.652 -0.094,0.935 0.138,1.217 0.557,1.256 0.841,1.021 1.126,0.788 1.168,0.37 0.935,0.087 0.703,-0.195 0.284,-0.234 0,0" /></g><g
           transform="translate(314.6553,280.2363)"
           id="g252"><path
             id="path254"
             style="fill:#444141;fill-opacity:1;fill-rule:nonzero;stroke:none"
             d="M 0,0 C -0.284,0.234 -0.327,0.653 -0.094,0.936 0.138,1.217 0.557,1.256 0.841,1.022 1.126,0.788 1.168,0.37 0.935,0.087 0.703,-0.194 0.284,-0.233 0,0" /></g><g
           transform="translate(313.1069,278.3555)"
           id="g256"><path
             id="path258"
             style="fill:#444141;fill-opacity:1;fill-rule:nonzero;stroke:none"
             d="M 0,0 C -0.284,0.233 -0.327,0.652 -0.094,0.935 0.138,1.217 0.557,1.256 0.841,1.021 1.126,0.788 1.168,0.37 0.935,0.087 0.703,-0.195 0.284,-0.234 0,0" /></g><g
           transform="translate(311.5586,276.4736)"
           id="g260"><path
             id="path262"
             style="fill:#444141;fill-opacity:1;fill-rule:nonzero;stroke:none"
             d="M 0,0 C -0.284,0.234 -0.327,0.653 -0.094,0.936 0.138,1.217 0.557,1.256 0.841,1.022 1.126,0.788 1.168,0.37 0.935,0.087 0.703,-0.194 0.284,-0.233 0,0" /></g><g
           transform="translate(310.0107,274.5928)"
           id="g264"><path
             id="path266"
             style="fill:#444141;fill-opacity:1;fill-rule:nonzero;stroke:none"
             d="M 0,0 C -0.284,0.233 -0.327,0.652 -0.094,0.935 0.138,1.217 0.557,1.256 0.841,1.021 1.126,0.788 1.168,0.37 0.935,0.087 0.703,-0.195 0.284,-0.234 0,0" /></g><g
           transform="translate(308.4624,272.7109)"
           id="g268"><path
             id="path270"
             style="fill:#444141;fill-opacity:1;fill-rule:nonzero;stroke:none"
             d="M 0,0 C -0.284,0.234 -0.327,0.653 -0.094,0.936 0.138,1.217 0.557,1.256 0.841,1.022 1.126,0.788 1.168,0.37 0.935,0.087 0.703,-0.194 0.284,-0.233 0,0" /></g><g
           transform="translate(306.9141,270.8301)"
           id="g272"><path
             id="path274"
             style="fill:#444141;fill-opacity:1;fill-rule:nonzero;stroke:none"
             d="M 0,0 C -0.284,0.233 -0.327,0.652 -0.094,0.935 0.138,1.217 0.557,1.256 0.841,1.021 1.126,0.788 1.168,0.37 0.935,0.087 0.703,-0.195 0.284,-0.234 0,0" /></g><g
           transform="translate(305.3662,268.9482)"
           id="g276"><path
             id="path278"
             style="fill:#444141;fill-opacity:1;fill-rule:nonzero;stroke:none"
             d="M 0,0 C -0.284,0.234 -0.327,0.653 -0.094,0.936 0.138,1.218 0.557,1.257 0.841,1.022 1.126,0.788 1.168,0.37 0.935,0.087 0.703,-0.194 0.284,-0.233 0,0" /></g><g
           transform="translate(303.8179,267.0674)"
           id="g280"><path
             id="path282"
             style="fill:#444141;fill-opacity:1;fill-rule:nonzero;stroke:none"
             d="M 0,0 C -0.284,0.233 -0.327,0.653 -0.094,0.935 0.138,1.217 0.557,1.256 0.841,1.021 1.126,0.788 1.168,0.37 0.935,0.087 0.703,-0.195 0.284,-0.234 0,0" /></g><g
           transform="translate(302.2695,265.1855)"
           id="g284"><path
             id="path286"
             style="fill:#444141;fill-opacity:1;fill-rule:nonzero;stroke:none"
             d="M 0,0 C -0.284,0.234 -0.327,0.653 -0.094,0.936 0.138,1.218 0.557,1.256 0.841,1.022 1.126,0.788 1.168,0.37 0.935,0.087 0.703,-0.194 0.284,-0.233 0,0" /></g><g
           transform="translate(300.7212,263.3047)"
           id="g288"><path
             id="path290"
             style="fill:#444141;fill-opacity:1;fill-rule:nonzero;stroke:none"
             d="M 0,0 C -0.284,0.234 -0.327,0.653 -0.094,0.935 0.138,1.217 0.557,1.256 0.841,1.021 1.126,0.788 1.168,0.37 0.935,0.087 0.703,-0.195 0.284,-0.234 0,0" /></g><g
           transform="translate(299.1733,261.4229)"
           id="g292"><path
             id="path294"
             style="fill:#444141;fill-opacity:1;fill-rule:nonzero;stroke:none"
             d="M 0,0 C -0.284,0.234 -0.327,0.653 -0.094,0.936 0.138,1.218 0.557,1.257 0.841,1.022 1.126,0.788 1.168,0.37 0.935,0.087 0.703,-0.194 0.284,-0.233 0,0" /></g><g
           transform="translate(297.625,259.542)"
           id="g296"><path
             id="path298"
             style="fill:#444141;fill-opacity:1;fill-rule:nonzero;stroke:none"
             d="M 0,0 C -0.284,0.233 -0.327,0.653 -0.094,0.935 0.138,1.217 0.557,1.256 0.841,1.021 1.126,0.788 1.168,0.37 0.935,0.087 0.703,-0.195 0.284,-0.234 0,0" /></g><g
           transform="translate(322.3921,298.3423)"
           id="g300"><path
             id="path302"
             style="fill:#444141;fill-opacity:1;fill-rule:nonzero;stroke:none"
             d="M 0,0 C -0.284,-0.234 -0.327,-0.653 -0.094,-0.935 0.138,-1.217 0.557,-1.256 0.841,-1.022 1.126,-0.788 1.168,-0.37 0.935,-0.087 0.703,0.195 0.284,0.234 0,0" /></g><g
           transform="translate(320.8437,300.2236)"
           id="g304"><path
             id="path306"
             style="fill:#444141;fill-opacity:1;fill-rule:nonzero;stroke:none"
             d="M 0,0 C -0.284,-0.234 -0.327,-0.653 -0.094,-0.935 0.138,-1.217 0.557,-1.256 0.841,-1.022 1.126,-0.788 1.168,-0.37 0.935,-0.087 0.703,0.195 0.284,0.234 0,0" /></g><g
           transform="translate(319.2959,302.105)"
           id="g308"><path
             id="path310"
             style="fill:#444141;fill-opacity:1;fill-rule:nonzero;stroke:none"
             d="M 0,0 C -0.284,-0.234 -0.327,-0.653 -0.094,-0.935 0.138,-1.217 0.557,-1.256 0.841,-1.022 1.126,-0.788 1.168,-0.37 0.935,-0.087 0.703,0.195 0.284,0.234 0,0" /></g><g
           transform="translate(317.7476,303.9863)"
           id="g312"><path
             id="path314"
             style="fill:#444141;fill-opacity:1;fill-rule:nonzero;stroke:none"
             d="M 0,0 C -0.284,-0.234 -0.327,-0.653 -0.094,-0.935 0.138,-1.217 0.557,-1.256 0.841,-1.022 1.126,-0.788 1.168,-0.37 0.935,-0.087 0.703,0.195 0.284,0.234 0,0" /></g><g
           transform="translate(316.1992,305.8677)"
           id="g316"><path
             id="path318"
             style="fill:#444141;fill-opacity:1;fill-rule:nonzero;stroke:none"
             d="M 0,0 C -0.284,-0.234 -0.327,-0.653 -0.094,-0.935 0.138,-1.217 0.557,-1.256 0.841,-1.022 1.126,-0.788 1.168,-0.37 0.935,-0.087 0.703,0.195 0.284,0.234 0,0" /></g><g
           transform="translate(314.6509,307.749)"
           id="g320"><path
             id="path322"
             style="fill:#444141;fill-opacity:1;fill-rule:nonzero;stroke:none"
             d="M 0,0 C -0.284,-0.234 -0.327,-0.653 -0.094,-0.935 0.138,-1.217 0.557,-1.256 0.841,-1.022 1.126,-0.788 1.168,-0.37 0.935,-0.087 0.703,0.195 0.284,0.234 0,0" /></g><g
           transform="translate(313.103,309.6299)"
           id="g324"><path
             id="path326"
             style="fill:#444141;fill-opacity:1;fill-rule:nonzero;stroke:none"
             d="M 0,0 C -0.284,-0.234 -0.327,-0.653 -0.094,-0.935 0.138,-1.217 0.557,-1.256 0.841,-1.022 1.126,-0.788 1.168,-0.37 0.935,-0.087 0.703,0.195 0.284,0.234 0,0" /></g><g
           transform="translate(311.5547,311.5117)"
           id="g328"><path
             id="path330"
             style="fill:#444141;fill-opacity:1;fill-rule:nonzero;stroke:none"
             d="M 0,0 C -0.284,-0.234 -0.327,-0.653 -0.094,-0.935 0.138,-1.217 0.557,-1.256 0.841,-1.022 1.126,-0.788 1.168,-0.37 0.935,-0.087 0.703,0.195 0.284,0.234 0,0" /></g><g
           transform="translate(310.0063,313.3931)"
           id="g332"><path
             id="path334"
             style="fill:#444141;fill-opacity:1;fill-rule:nonzero;stroke:none"
             d="M 0,0 C -0.284,-0.234 -0.327,-0.653 -0.094,-0.935 0.138,-1.217 0.557,-1.256 0.841,-1.022 1.126,-0.788 1.168,-0.37 0.935,-0.087 0.703,0.195 0.284,0.234 0,0" /></g><g
           transform="translate(308.4585,315.2739)"
           id="g336"><path
             id="path338"
             style="fill:#444141;fill-opacity:1;fill-rule:nonzero;stroke:none"
             d="M 0,0 C -0.284,-0.234 -0.327,-0.653 -0.094,-0.935 0.138,-1.217 0.557,-1.256 0.841,-1.022 1.126,-0.788 1.168,-0.37 0.935,-0.087 0.703,0.195 0.284,0.234 0,0" /></g><g
           transform="translate(306.9102,317.1558)"
           id="g340"><path
             id="path342"
             style="fill:#444141;fill-opacity:1;fill-rule:nonzero;stroke:none"
             d="M 0,0 C -0.284,-0.234 -0.327,-0.653 -0.094,-0.935 0.138,-1.217 0.557,-1.256 0.841,-1.022 1.126,-0.788 1.168,-0.37 0.935,-0.087 0.703,0.195 0.284,0.234 0,0" /></g><g
           transform="translate(305.3618,319.0366)"
           id="g344"><path
             id="path346"
             style="fill:#444141;fill-opacity:1;fill-rule:nonzero;stroke:none"
             d="M 0,0 C -0.284,-0.234 -0.327,-0.653 -0.094,-0.935 0.138,-1.217 0.557,-1.256 0.841,-1.022 1.126,-0.788 1.168,-0.37 0.935,-0.087 0.703,0.195 0.284,0.234 0,0" /></g><g
           transform="translate(303.8135,320.918)"
           id="g348"><path
             id="path350"
             style="fill:#444141;fill-opacity:1;fill-rule:nonzero;stroke:none"
             d="M 0,0 C -0.284,-0.234 -0.327,-0.653 -0.094,-0.935 0.138,-1.217 0.557,-1.256 0.841,-1.022 1.126,-0.788 1.168,-0.37 0.935,-0.087 0.703,0.195 0.284,0.234 0,0" /></g><g
           transform="translate(302.2656,322.7993)"
           id="g352"><path
             id="path354"
             style="fill:#444141;fill-opacity:1;fill-rule:nonzero;stroke:none"
             d="M 0,0 C -0.284,-0.234 -0.327,-0.653 -0.094,-0.935 0.138,-1.217 0.557,-1.256 0.841,-1.022 1.126,-0.788 1.168,-0.37 0.935,-0.087 0.703,0.195 0.284,0.234 0,0" /></g><g
           transform="translate(300.7173,324.6807)"
           id="g356"><path
             id="path358"
             style="fill:#444141;fill-opacity:1;fill-rule:nonzero;stroke:none"
             d="M 0,0 C -0.284,-0.234 -0.327,-0.653 -0.094,-0.935 0.138,-1.217 0.557,-1.256 0.841,-1.022 1.126,-0.788 1.168,-0.37 0.935,-0.087 0.703,0.195 0.284,0.234 0,0" /></g><g
           transform="translate(299.1689,326.562)"
           id="g360"><path
             id="path362"
             style="fill:#444141;fill-opacity:1;fill-rule:nonzero;stroke:none"
             d="M 0,0 C -0.284,-0.234 -0.327,-0.653 -0.094,-0.935 0.138,-1.217 0.557,-1.256 0.841,-1.022 1.126,-0.788 1.168,-0.37 0.935,-0.087 0.703,0.195 0.284,0.234 0,0" /></g><g
           transform="translate(297.6211,328.4434)"
           id="g364"><path
             id="path366"
             style="fill:#444141;fill-opacity:1;fill-rule:nonzero;stroke:none"
             d="M 0,0 C -0.284,-0.234 -0.327,-0.653 -0.094,-0.935 0.138,-1.217 0.557,-1.256 0.841,-1.022 1.126,-0.788 1.168,-0.37 0.935,-0.087 0.703,0.195 0.284,0.234 0,0" /></g><g
           transform="translate(247.5254,294.0156)"
           id="g368"><path
             id="path370"
             style="fill:#2647a3;fill-opacity:1;fill-rule:nonzero;stroke:none"
             d="M 0,0 C 0.025,10.176 8.294,18.404 18.47,18.377 28.646,18.351 36.875,10.081 36.85,-0.096 36.825,-10.271 28.556,-18.499 18.38,-18.474 8.204,-18.446 -0.025,-10.176 0,0" /></g><g
           transform="translate(323.7583,220.5645)"
           id="g372"><path
             id="path374"
             style="fill:#2647a3;fill-opacity:1;fill-rule:nonzero;stroke:none"
             d="M 0,0 C 0.001,8.153 6.611,14.76 14.764,14.759 22.916,14.758 29.524,8.148 29.523,-0.005 29.522,-8.157 22.912,-14.765 14.759,-14.764 6.607,-14.762 -0.001,-8.152 0,0" /></g><g
           transform="translate(323.7588,367.3906)"
           id="g376"><path
             id="path378"
             style="fill:#2647a3;fill-opacity:1;fill-rule:nonzero;stroke:none"
             d="M 0,0 C -0.016,8.152 6.58,14.775 14.733,14.791 22.885,14.808 29.507,8.212 29.523,0.06 29.539,-8.092 22.942,-14.715 14.79,-14.731 6.637,-14.748 0.016,-8.152 0,0" /></g><g
           transform="translate(353.2812,293.9863)"
           id="g380"><path
             id="path382"
             style="fill:#ec0c5f;fill-opacity:1;fill-rule:nonzero;stroke:none"
             d="m 0,0 c 0,-8.151 -6.609,-14.761 -14.761,-14.761 -8.152,0 -14.761,6.61 -14.761,14.761 0,8.152 6.609,14.761 14.761,14.761 C -6.609,14.761 0,8.152 0,0" /></g><g
           transform="translate(281.1484,330.6099)"
           id="g384"><path
             id="path386"
             style="fill:#2647a3;fill-opacity:1;fill-rule:nonzero;stroke:none"
             d="m 0,0 c -3.91,4.941 -2.994,12.218 2.047,16.253 5.04,4.035 12.296,3.3 16.206,-1.641 C 22.163,9.671 21.247,2.394 16.206,-1.641 11.166,-5.676 3.91,-4.941 0,0" /></g><g
           transform="translate(220.4204,293.9863)"
           id="g388"><path
             id="path390"
             style="fill:#33bdf2;fill-opacity:1;fill-rule:nonzero;stroke:none"
             d="m 0,0 c 0,4.175 3.385,7.56 7.56,7.56 4.175,0 7.559,-3.385 7.559,-7.56 0,-4.175 -3.384,-7.56 -7.559,-7.56 C 3.385,-7.56 0,-4.175 0,0" /></g><g
           transform="translate(255.2651,225.9639)"
           id="g392"><path
             id="path394"
             style="fill:#33bdf2;fill-opacity:1;fill-rule:nonzero;stroke:none"
             d="m 0,0 c -3.971,-4.891 -3.144,-12.176 1.848,-16.271 4.993,-4.097 12.259,-3.452 16.231,1.439 C 22.05,-9.94 21.223,-2.655 16.23,1.44 11.238,5.535 3.971,4.892 0,0" /></g><g
           transform="translate(281.1294,257.3584)"
           id="g396"><path
             id="path398"
             style="fill:#2647a3;fill-opacity:1;fill-rule:nonzero;stroke:none"
             d="m 0,0 c -3.91,-4.941 -2.994,-12.218 2.047,-16.253 5.04,-4.035 12.296,-3.3 16.206,1.641 3.91,4.941 2.994,12.217 -2.047,16.253 C 11.166,5.676 3.91,4.94 0,0" /></g><g
           transform="translate(338.52,179.2656)"
           id="g400"><path
             id="path402"
             style="fill:#ec0c5f;fill-opacity:1;fill-rule:nonzero;stroke:none"
             d="m 0,0 c -4.175,0 -7.56,3.385 -7.56,7.561 0,4.174 3.385,7.558 7.56,7.558 4.175,0 7.56,-3.384 7.56,-7.558 C 7.56,3.385 4.175,0 0,0" /></g><g
           transform="translate(338.52,408.6182)"
           id="g404"><path
             id="path406"
             style="fill:#ec0c5f;fill-opacity:1;fill-rule:nonzero;stroke:none"
             d="m 0,0 c -4.175,0 -7.56,-3.385 -7.56,-7.56 0,-4.175 3.385,-7.559 7.56,-7.559 4.175,0 7.56,3.384 7.56,7.559 C 7.56,-3.385 4.175,0 0,0" /></g><g
           transform="translate(402.3252,298.5537)"
           id="g408"><path
             id="path410"
             style="fill:#444141;fill-opacity:1;fill-rule:nonzero;stroke:none"
             d="m 0,0 c -4.998,0 -5.639,-4.224 -5.639,-9.833 0,-5.609 0.641,-9.899 5.639,-9.899 4.998,0 5.638,4.29 5.638,9.899 C 5.638,-4.224 4.998,0 0,0 m 10.572,-24.352 c -1.859,-1.914 -4.87,-3.101 -8.137,-3.101 -3.396,0 -5.895,0.924 -8.074,3.432 l 0,-15.641 -8.329,0 0,46.987 8.073,0 0,-3.233 c 2.307,2.639 4.806,3.629 8.33,3.629 3.267,0 6.278,-1.187 8.137,-3.101 3.331,-3.432 3.395,-9.306 3.395,-14.453 0,-5.147 -0.064,-11.087 -3.395,-14.519" /></g><g
           transform="translate(442.5117,271.4961)"
           id="g412"><path
             id="path414"
             style="fill:#444141;fill-opacity:1;fill-rule:nonzero;stroke:none"
             d="m 0,0 0,3.168 c -2.178,-2.376 -5.254,-3.564 -8.329,-3.564 -3.332,0 -6.023,1.122 -7.881,3.036 -2.69,2.771 -3.395,6.006 -3.395,9.767 l 0,21.976 8.329,0 0,-20.788 c 0,-4.686 2.882,-6.27 5.509,-6.27 2.627,0 5.575,1.584 5.575,6.27 l 0,20.788 8.33,0 L 8.138,0 0,0 Z" /></g><g
           transform="translate(472.1475,298.5537)"
           id="g416"><path
             id="path418"
             style="fill:#444141;fill-opacity:1;fill-rule:nonzero;stroke:none"
             d="m 0,0 c -4.997,0 -5.638,-4.224 -5.638,-9.833 0,-5.609 0.641,-9.899 5.638,-9.899 4.998,0 5.639,4.29 5.639,9.899 C 5.639,-4.224 4.998,0 0,0 m 10.572,-24.352 c -1.858,-1.914 -4.869,-3.101 -8.137,-3.101 -3.524,0 -6.023,0.989 -8.33,3.629 l 0,-3.234 -8.073,0 0,46.988 8.33,0 0,-15.64 c 2.178,2.507 4.677,3.431 8.073,3.431 3.268,0 6.279,-1.187 8.137,-3.101 3.332,-3.432 3.396,-9.306 3.396,-14.453 0,-5.147 -0.064,-11.087 -3.396,-14.519" /></g><g
           transform="translate(502.2861,271.4961)"
           id="g420"><path
             id="path422"
             style="fill:#444141;fill-opacity:1;fill-rule:nonzero;stroke:none"
             d="m 0,0 c -6.855,0 -9.739,4.949 -9.739,9.833 l 0,37.155 8.33,0 0,-36.627 c 0,-2.046 0.833,-3.101 2.947,-3.101 l 3.203,0 L 4.741,0 0,0 Z" /></g><path
           id="path424"
           style="fill:#444141;fill-opacity:1;fill-rule:nonzero;stroke:none"
           d="m 513.978,305.879 8.33,0 0,-34.383 -8.33,0 0,34.383 z m -0.128,12.869 8.521,0 0,-6.996 -8.521,0 0,6.996 z" /><g
           transform="translate(542.6787,298.5537)"
           id="g426"><path
             id="path428"
             style="fill:#444141;fill-opacity:1;fill-rule:nonzero;stroke:none"
             d="m 0,0 c -4.998,0 -5.639,-4.224 -5.639,-9.833 0,-5.609 0.641,-9.899 5.639,-9.899 4.997,0 5.702,4.29 5.702,9.899 C 5.702,-4.224 4.997,0 0,0 m 5.702,-39.662 0,15.641 c -2.179,-2.508 -4.741,-3.432 -8.137,-3.432 -3.267,0 -6.279,1.187 -8.137,3.101 -3.331,3.432 -3.396,9.372 -3.396,14.519 0,5.147 0.065,11.021 3.396,14.453 1.858,1.914 4.933,3.101 8.201,3.101 3.524,0 5.959,-0.99 8.266,-3.629 l 0,3.233 8.136,0 0,-46.987 -8.329,0 z" /></g><g
           transform="translate(583.377,271.4961)"
           id="g430"><path
             id="path432"
             style="fill:#444141;fill-opacity:1;fill-rule:nonzero;stroke:none"
             d="m 0,0 0,3.168 c -2.178,-2.376 -5.254,-3.564 -8.329,-3.564 -3.332,0 -6.023,1.122 -7.881,3.036 -2.69,2.771 -3.395,6.006 -3.395,9.767 l 0,21.976 8.329,0 0,-20.788 c 0,-4.686 2.882,-6.27 5.509,-6.27 2.627,0 5.575,1.584 5.575,6.27 l 0,20.788 8.33,0 L 8.138,0 0,0 Z" /></g><g
           transform="translate(617.9424,295.584)"
           id="g434"><path
             id="path436"
             style="fill:#444141;fill-opacity:1;fill-rule:nonzero;stroke:none"
             d="m 0,0 c -0.897,2.046 -2.755,3.563 -5.574,3.563 -2.82,0 -4.678,-1.517 -5.574,-3.563 -0.513,-1.254 -0.706,-2.178 -0.769,-3.695 l 12.686,0 C 0.705,-2.178 0.513,-1.254 0,0 m -11.917,-9.569 c 0,-4.422 2.627,-7.656 7.304,-7.656 3.652,0 5.446,1.056 7.56,3.234 l 5.062,-5.081 c -3.396,-3.498 -6.663,-5.411 -12.686,-5.411 -7.881,0 -15.441,3.695 -15.441,17.62 0,11.218 5.894,17.554 14.544,17.554 9.29,0 14.544,-6.995 14.544,-16.432 l 0,-3.828 -20.887,0 z" /></g><g
           transform="translate(402.0894,330.6411)"
           id="g438"><path
             id="path440"
             style="fill:#444141;fill-opacity:1;fill-rule:nonzero;stroke:none"
             d="m 0,0 c -6.92,0 -12.174,1.518 -16.659,6.204 l 5.767,5.939 c 2.883,-2.97 6.791,-3.96 11.02,-3.96 5.254,0 8.073,2.046 8.073,5.808 0,1.65 -0.449,3.035 -1.409,3.96 -0.897,0.858 -1.922,1.32 -4.037,1.649 l -5.51,0.792 c -3.909,0.594 -6.792,1.848 -8.842,3.894 -2.178,2.244 -3.268,5.279 -3.268,9.239 0,8.381 6.023,14.255 15.89,14.255 6.279,0 10.828,-1.584 14.737,-5.478 l -5.638,-5.741 c -2.884,2.837 -6.344,3.233 -9.355,3.233 -4.742,0 -7.048,-2.705 -7.048,-5.939 0,-1.188 0.384,-2.442 1.345,-3.366 0.897,-0.858 2.371,-1.583 4.229,-1.847 L 4.677,27.85 c 4.165,-0.594 6.792,-1.782 8.714,-3.63 2.435,-2.376 3.524,-5.807 3.524,-9.965 C 16.915,5.147 9.547,0 0,0" /></g><g
           transform="translate(444.0762,345.5557)"
           id="g442"><path
             id="path444"
             style="fill:#444141;fill-opacity:1;fill-rule:nonzero;stroke:none"
             d="m 0,0 -6.599,0 c -3.011,0 -4.677,-1.452 -4.677,-3.894 0,-2.375 1.538,-3.959 4.805,-3.959 2.307,0 3.781,0.198 5.254,1.65 C -0.32,-5.345 0,-3.959 0,-1.848 L 0,0 Z m 0.192,-14.519 0,2.97 c -2.242,-2.309 -4.356,-3.3 -8.201,-3.3 -3.78,0 -6.535,0.991 -8.521,3.036 -1.794,1.914 -2.755,4.686 -2.755,7.722 0,5.477 3.652,9.965 11.404,9.965 l 7.881,0 0,1.715 c 0,3.762 -1.794,5.412 -6.215,5.412 -3.203,0 -4.677,-0.792 -6.407,-2.838 l -5.317,5.346 c 3.267,3.696 6.47,4.751 12.044,4.751 C 3.46,20.26 8.33,16.169 8.33,8.118 l 0,-22.637 -8.138,0 z" /></g><g
           transform="translate(479.8154,331.0371)"
           id="g446"><path
             id="path448"
             style="fill:#444141;fill-opacity:1;fill-rule:nonzero;stroke:none"
             d="m 0,0 0,20.788 c 0,4.686 -2.883,6.27 -5.51,6.27 -2.627,0 -5.574,-1.584 -5.574,-6.27 l 0,-20.788 -8.33,0 0,34.383 8.138,0 0,-3.168 c 2.178,2.376 5.254,3.564 8.329,3.564 3.332,0 6.022,-1.122 7.881,-3.036 2.691,-2.771 3.395,-6.005 3.395,-9.767 L 8.329,0 0,0 Z" /></g><g
           transform="translate(508.4121,331.0371)"
           id="g450"><path
             id="path452"
             style="fill:#444141;fill-opacity:1;fill-rule:nonzero;stroke:none"
             d="m 0,0 c -6.792,0 -9.675,4.95 -9.675,9.833 l 0,17.027 -3.524,0 0,6.533 3.524,0 0,10.163 8.329,0 0,-10.163 5.895,0 0,-6.533 -5.895,0 0,-16.499 c 0,-1.98 0.898,-3.102 2.883,-3.102 l 3.012,0 L 4.549,0 0,0 Z" /></g><g
           transform="translate(535.5439,370.8975)"
           id="g454"><path
             id="path456"
             style="fill:#444141;fill-opacity:1;fill-rule:nonzero;stroke:none"
             d="m 0,0 -5.574,0 4.1,11.219 8.779,0 L 0,0 Z m 3.332,-15.772 c -0.897,2.045 -2.755,3.563 -5.574,3.563 -2.82,0 -4.678,-1.518 -5.574,-3.563 -0.513,-1.254 -0.705,-2.178 -0.769,-3.696 l 12.686,0 c -0.064,1.518 -0.256,2.442 -0.769,3.696 m -11.917,-9.57 c 0,-4.421 2.627,-7.655 7.304,-7.655 3.652,0 5.446,1.056 7.56,3.234 l 5.062,-5.082 c -3.396,-3.497 -6.663,-5.411 -12.686,-5.411 -7.881,0 -15.441,3.695 -15.441,17.62 0,11.219 5.894,17.554 14.544,17.554 9.29,0 14.544,-6.995 14.544,-16.432 l 0,-3.828 -20.887,0 z" /></g><g
           transform="translate(391.3394,227.084)"
           id="g458"><path
             id="path460"
             style="fill:#444141;fill-opacity:1;fill-rule:nonzero;stroke:none"
             d="m 0,0 18.13,0 0,-2.784 -18.13,0 0,-18.734 -3.041,0 0,41.295 24.324,0 0,-2.784 L 0,16.993 0,0 Z" /></g><g
           transform="translate(427.0234,231.2598)"
           id="g462"><path
             id="path464"
             style="fill:#444141;fill-opacity:1;fill-rule:nonzero;stroke:none"
             d="m 0,0 c -4.674,0 -7.266,-4.002 -7.266,-8.468 l 0,-17.225 -2.873,0 0,27.955 2.873,0 0,-3.712 c 1.579,2.61 4.732,4.06 7.942,4.06 2.646,0 4.56,-0.638 6.531,-2.668 L 5.123,-2.204 C 3.49,-0.521 2.252,0 0,0" /></g><g
           transform="translate(447.9687,218.9062)"
           id="g466"><path
             id="path468"
             style="fill:#444141;fill-opacity:1;fill-rule:nonzero;stroke:none"
             d="m 0,0 c -4.617,0 -6.926,-1.856 -6.926,-5.626 0,-3.712 2.14,-5.452 7.095,-5.452 2.477,0 4.786,0.232 6.757,2.146 1.012,0.986 1.519,2.784 1.519,5.336 L 8.445,0 0,0 Z m 8.445,-10.556 c -2.308,-2.378 -4.447,-3.132 -8.276,-3.132 -4.054,0 -6.25,0.696 -7.995,2.552 -1.295,1.334 -1.971,3.365 -1.971,5.452 0,5.104 3.547,8.062 9.459,8.062 l 8.783,0 0,3.132 c 0,4.466 -2.083,6.844 -7.657,6.844 -3.829,0 -5.743,-0.987 -7.488,-3.539 l -2.083,1.857 c 2.307,3.306 5.123,4.292 9.571,4.292 7.207,0 10.529,-3.307 10.529,-9.164 l 0,-19.14 -2.872,0 0,2.784 z" /></g><g
           transform="translate(484.0381,222.9082)"
           id="g470"><path
             id="path472"
             style="fill:#444141;fill-opacity:1;fill-rule:nonzero;stroke:none"
             d="m 0,0 c 0,5.394 -2.591,8.352 -7.489,8.352 -4.899,0 -7.657,-3.016 -7.657,-8.352 l 0,-17.342 -2.872,0 0,27.955 2.872,0 0,-3.305 c 2.027,2.435 4.673,3.654 7.995,3.654 2.984,0 5.405,-0.87 7.207,-2.668 C 1.914,6.437 2.871,3.828 2.871,0.521 l 0,-17.863 -2.871,0 L 0,0 Z" /></g><g
           transform="translate(504.5713,205.2187)"
           id="g474"><path
             id="path476"
             style="fill:#444141;fill-opacity:1;fill-rule:nonzero;stroke:none"
             d="m 0,0 c -7.432,0 -11.937,5.451 -11.937,14.325 0,8.874 4.505,14.326 11.937,14.326 3.717,0 6.081,-0.986 8.953,-4.292 L 6.982,22.503 C 4.674,25.171 2.872,26.041 0,26.041 c -3.097,0 -5.574,-1.218 -7.207,-3.712 -1.351,-2.03 -1.857,-4.233 -1.857,-8.004 0,-3.769 0.506,-5.973 1.857,-8.004 1.633,-2.494 4.11,-3.712 7.207,-3.712 2.872,0 4.674,0.928 6.982,3.538 L 8.953,4.292 C 6.081,0.985 3.717,0 0,0" /></g><g
           transform="translate(536.6006,226.5615)"
           id="g478"><path
             id="path480"
             style="fill:#444141;fill-opacity:1;fill-rule:nonzero;stroke:none"
             d="m 0,0 c -1.183,2.958 -3.885,4.698 -7.038,4.698 -3.153,0 -5.856,-1.74 -7.038,-4.698 -0.619,-1.798 -0.788,-2.552 -0.957,-5.277 l 15.99,0 C 0.788,-2.609 0.731,-1.682 0,0 m -6.193,-18.675 c 3.209,0 5.179,0.986 7.488,3.363 l 2.14,-1.739 c -2.759,-2.843 -5.293,-4.292 -9.797,-4.292 -7.489,0 -11.543,4.988 -11.543,14.325 0,9.048 4.054,14.327 10.867,14.327 6.812,0 10.867,-5.046 10.867,-13.63 l 0,-1.334 -18.862,0 c 0,-7.134 3.04,-11.02 8.84,-11.02" /></g></g></g></g></svg>