<?xml version="1.0" encoding="UTF-8" standalone="no"?>
<svg xmlns="http://www.w3.org/2000/svg" xmlns:xlink="http://www.w3.org/1999/xlink" width="415" zoomAndPan="magnify" viewBox="0 0 312 311.999988" height="415" preserveAspectRatio="xMidYMid meet" version="1.0"><defs><clipPath id="20a0a06b0e"><path d="M 3.578125 3.578125 L 308.230469 3.578125 L 308.230469 308.230469 L 3.578125 308.230469 Z M 3.578125 3.578125 " clip-rule="nonzero"/></clipPath><clipPath id="f5b92f8023"><path d="M 155.90625 3.578125 C 71.777344 3.578125 3.578125 71.777344 3.578125 155.90625 C 3.578125 240.03125 71.777344 308.230469 155.90625 308.230469 C 240.03125 308.230469 308.230469 240.03125 308.230469 155.90625 C 308.230469 71.777344 240.03125 3.578125 155.90625 3.578125 Z M 155.90625 3.578125 " clip-rule="nonzero"/></clipPath><clipPath id="bfa818a74d"><path d="M 104.796875 178.410156 L 207.015625 178.410156 L 207.015625 280.628906 L 104.796875 280.628906 Z M 104.796875 178.410156 " clip-rule="nonzero"/></clipPath><clipPath id="49fc7b8847"><path d="M 155.90625 178.410156 C 127.679688 178.410156 104.796875 201.292969 104.796875 229.519531 C 104.796875 257.746094 127.679688 280.628906 155.90625 280.628906 C 184.132812 280.628906 207.015625 257.746094 207.015625 229.519531 C 207.015625 201.292969 184.132812 178.410156 155.90625 178.410156 Z M 155.90625 178.410156 " clip-rule="nonzero"/></clipPath><clipPath id="4ee16a9270"><path d="M 127.925781 31.179688 L 183.882812 31.179688 L 183.882812 233.804688 L 127.925781 233.804688 Z M 127.925781 31.179688 " clip-rule="nonzero"/></clipPath><clipPath id="055b453249"><path d="M 155.90625 31.179688 C 163.324219 31.179688 170.441406 34.128906 175.6875 39.375 C 180.9375 44.621094 183.882812 51.738281 183.882812 59.160156 L 183.882812 205.714844 C 183.882812 213.132812 180.9375 220.25 175.6875 225.496094 C 170.441406 230.742188 163.324219 233.691406 155.90625 233.691406 C 148.484375 233.691406 141.367188 230.742188 136.121094 225.496094 C 130.875 220.25 127.925781 213.132812 127.925781 205.714844 L 127.925781 59.160156 C 127.925781 51.738281 130.875 44.621094 136.121094 39.375 C 141.367188 34.128906 148.484375 31.179688 155.90625 31.179688 Z M 155.90625 31.179688 " clip-rule="nonzero"/></clipPath></defs><g clip-path="url(#20a0a06b0e)"><g clip-path="url(#f5b92f8023)"><path fill="#409e80" d="M 3.578125 3.578125 L 308.230469 3.578125 L 308.230469 308.230469 L 3.578125 308.230469 Z M 3.578125 3.578125 " fill-opacity="1" fill-rule="nonzero"/></g></g><g clip-path="url(#bfa818a74d)"><g clip-path="url(#49fc7b8847)"><path fill="#ffffff" d="M 104.796875 178.410156 L 207.015625 178.410156 L 207.015625 280.628906 L 104.796875 280.628906 Z M 104.796875 178.410156 " fill-opacity="1" fill-rule="nonzero"/></g></g><g clip-path="url(#4ee16a9270)"><g clip-path="url(#055b453249)"><path fill="#ffffff" d="M 127.925781 31.179688 L 183.882812 31.179688 L 183.882812 233.585938 L 127.925781 233.585938 Z M 127.925781 31.179688 " fill-opacity="1" fill-rule="nonzero"/></g></g></svg>